<svg xmlns="http://www.w3.org/2000/svg" viewBox="0 0 512 512" width="100%" height="100%">
  <!-- Background Circle (Soft Brand Mint #E6F4F1) -->
  <circle cx="256" cy="256" r="240" fill="#E6F4F1" />
  
  <!-- Friendly Bubble Letter "A" (Official Brand Teal #4D9689) -->
  <path d="M 256 90 
           C 300 90, 360 220, 390 330 
           C 405 380, 370 422, 320 422 
           C 285 422, 280 390, 275 360 
           L 237 360 
           C 232 390, 227 422, 192 422 
           C 142 422, 107 380, 122 330 
           C 152 220, 212 90, 256 90 Z 
           M 256 190 
           C 235 190, 210 270, 195 315 
           L 317 315 
           C 302 270, 277 190, 256 190 Z" 
        fill="#4D9689" />
</svg>
