<svg xmlns="http://www.w3.org/2000/svg" viewBox="0 0 512 512" width="100%" height="100%">
  <!-- Squircle Base matching the official navbar logo container (brand-teal #4D9689) -->
  <rect x="32" y="32" width="448" height="448" rx="120" ry="120" fill="#4D9689" />
  
  <!-- Bold, rounded Capital "A" for Auvia (White #ffffff) -->
  <path d="M 256,100 
           C 275,100 290,115 298,135 
           L 398,365 
           C 406,383 398,405 380,412 
           C 362,420 340,412 332,394 
           L 308,340 
           L 204,340 
           L 180,394 
           C 172,412 150,420 132,412 
           C 114,405 106,383 114,365 
           L 214,135 
           C 222,115 237,100 256,100 Z 
           M 256,180 
           L 222,290 
           L 290,290 
           Z" 
        fill="#ffffff" />
</svg>
